<svg width="35" height="35" viewBox="0 0 35 35" fill="none" xmlns="http://www.w3.org/2000/svg">
    <path d="M34.699 15.9705L29.4932 11.1366V3.21725H23.4964V5.56858L17.4997 0L0.301032 15.9705C0.0587631 16.196 0.0443709 16.5756 0.269849 16.8185C0.494726 17.0607 0.87432 17.0745 1.11779 16.8497L3.10811 15.0015V35H12.7029H22.2977H31.8925V15.0009L33.8828 16.8491C33.9979 16.9564 34.1449 17.0092 34.2912 17.0092C34.4525 17.0092 34.6126 16.945 34.7301 16.8179C34.9556 16.5756 34.9412 16.196 34.699 15.9705ZM24.6958 4.4166H28.2938V10.023L24.6958 6.68217V4.4166ZM13.9016 33.8007V21.1697C13.9016 20.8597 14.1535 20.6078 14.4635 20.6078H20.5358C20.8459 20.6078 21.0977 20.8597 21.0977 21.1697V33.8007H13.9016ZM30.6925 33.8007H22.2971V21.1697C22.2971 20.1982 21.5073 19.4085 20.5358 19.4085H14.4635C13.4921 19.4085 12.7023 20.1982 12.7023 21.1697V33.8007H4.30686V13.8873L17.4997 1.63651L26.063 9.58819L29.4932 12.7731L30.6925 13.8867V33.8007Z"
          fill="#55439B"/>
</svg>
