<svg width="37" height="37" viewBox="0 0 37 37" fill="none" xmlns="http://www.w3.org/2000/svg">
<path d="M18.5 0C8.28331 0 0 8.28268 0 18.5C0 28.7167 8.28331 37 18.5 37C28.7167 37 37 28.7167 37 18.5C37 8.28268 28.7167 0 18.5 0ZM18.5 33.9167C9.98494 33.9167 3.08333 27.0138 3.08333 18.5C3.08333 11.0083 8.42941 4.76922 15.513 3.37869C9.97549 6.16478 6.16667 11.8761 6.16667 18.4987C6.16667 25.3078 11.6885 30.8314 18.5 30.8314C25.3109 30.8314 30.8314 25.3097 30.8333 18.5C30.8314 13.3932 26.6933 9.25 21.5833 9.25C16.4753 9.25 12.3333 13.3932 12.3333 18.5C12.3333 21.9064 15.0949 24.6667 18.5 24.6667C21.9051 24.6667 24.6667 21.9064 24.6667 18.5C24.6667 16.7959 23.2862 15.4167 21.5833 15.4167C19.8804 15.4167 18.5 16.7959 18.5 18.5H21.5833C21.5833 20.2041 20.2029 21.5833 18.5 21.5833C16.7971 21.5833 15.4167 20.2041 15.4167 18.5C15.4167 15.0961 18.1782 12.3333 21.5833 12.3333C24.9904 12.3333 27.75 15.0949 27.75 18.5C27.7487 23.6068 23.608 27.7487 18.5 27.7487C13.3913 27.7487 9.25 23.6049 9.25 18.4987C9.25 10.837 15.4639 4.625 23.125 4.625C24.0388 4.625 24.9192 4.74214 25.782 4.9128C30.6224 7.51185 33.9167 12.6192 33.9167 18.5C33.9167 27.0138 27.0138 33.9167 18.5 33.9167Z" fill="#55439B"/>
</svg>
