<svg width="33" height="41" viewBox="0 0 33 41" fill="none" xmlns="http://www.w3.org/2000/svg">
<path d="M32.6811 18.8223C32.3812 18.3225 31.8794 18.0476 31.2657 18.0476C31.263 18.0476 31.2602 18.0476 31.2574 18.0476C30.1003 18.0518 28.7078 18.5106 27.6236 19.2443C26.6233 19.9211 25.1733 21.1754 23.9495 23.314C23.7198 23.7153 23.3428 23.9874 22.9395 24.0519C22.9382 23.9589 22.9388 23.8527 22.9388 23.752C22.9388 23.5375 22.9395 23.2821 22.9305 23.0003V7.63553C22.9305 6.10426 21.6852 4.85897 20.154 4.85897C18.6227 4.85897 17.3774 6.10426 17.3774 7.63553V18.3947C17.3774 18.5856 17.2212 18.7417 17.0303 18.7417C16.8395 18.7417 16.6833 18.5856 16.6833 18.3947V2.77656C16.6833 1.24528 15.438 0 13.9067 0C12.3754 0 11.1302 1.24528 11.1302 2.77656V18.3947C11.1302 18.5856 10.974 18.7417 10.7831 18.7417C10.5922 18.7417 10.436 18.5856 10.436 18.3947V5.90018C10.436 4.56049 9.34622 3.47069 8.00654 3.47069C6.66685 3.47069 5.57705 4.56049 5.57705 5.90018V19.783C5.57705 19.9738 5.42087 20.13 5.22998 20.13C5.03909 20.13 4.88291 19.9738 4.88291 19.783V11.1062C4.88291 9.76653 3.79311 8.67673 2.44648 8.67673C1.1068 8.67673 0.0169983 9.76653 0.0169983 11.1062L0.0183865 29.9847C0.690313 39.6909 6.64394 41 12.3796 41C17.1317 41 21.3999 38.6427 23.5046 34.8749C23.7753 34.4376 24.5076 33.286 25.376 31.9221C27.5472 28.5111 29.3659 25.6463 29.6345 25.1368C30.2336 24.0026 30.902 23.1162 31.567 22.5734C32.1688 22.0819 32.5367 21.4551 32.8359 20.9047C32.9907 20.618 33.1253 19.565 32.6811 18.8223ZM31.5788 20.3098C31.3011 20.8158 31.0394 21.2122 30.6889 21.4982C29.8698 22.1673 29.1028 23.1731 28.4073 24.4892C28.1428 24.9911 25.7737 28.7137 24.2057 31.1772C23.3324 32.5489 22.5966 33.7053 22.3086 34.1718C20.4337 37.5272 16.6291 39.6124 12.3796 39.6124C5.062 39.6124 1.88215 36.7949 1.40528 29.9375V11.1062C1.40528 10.5322 1.87243 10.065 2.45342 10.065C3.02748 10.065 3.49463 10.5322 3.49463 11.1062V19.783C3.49463 20.7402 4.27276 21.5183 5.22998 21.5183C6.1872 21.5183 6.96533 20.7402 6.96533 19.783V5.90018C6.96533 5.32613 7.43248 4.85897 8.00654 4.85897C8.58059 4.85897 9.04774 5.32613 9.04774 5.90018V18.3947C9.04774 19.3519 9.82587 20.13 10.7831 20.13C11.7403 20.13 12.5184 19.3519 12.5184 18.3947V2.77656C12.5184 2.01092 13.1411 1.38828 13.9067 1.38828C14.6723 1.38828 15.295 2.01092 15.295 2.77656V18.3947C15.295 19.3519 16.0731 20.13 17.0303 20.13C17.9876 20.13 18.7657 19.3519 18.7657 18.3947V7.63553C18.7657 6.86989 19.3883 6.24725 20.154 6.24725C20.9196 6.24725 21.5422 6.86989 21.5422 7.63553V23.0218C21.5513 23.3071 21.5506 23.548 21.5506 23.7507C21.5492 24.3719 21.5485 24.8203 21.8907 25.1556C22.1774 25.4353 22.5487 25.4527 22.8111 25.4555C23.7558 25.4339 24.6541 24.8772 25.1545 24.0033C26.245 22.0958 27.5216 20.988 28.401 20.3945C29.2562 19.8156 30.38 19.4394 31.263 19.4359C31.2637 19.4359 31.265 19.4359 31.2657 19.4359C31.4143 19.4359 31.4483 19.4796 31.4684 19.5053C31.6052 19.6788 31.6114 20.1154 31.5788 20.3098Z" fill="#55439B"/>
</svg>
