<svg width="111" height="35" viewBox="0 0 111 35" fill="none" xmlns="http://www.w3.org/2000/svg">
<path d="M16.1417 8.892V27H13.2977V23.868C12.7217 24.972 11.9177 25.812 10.8857 26.388C9.85373 26.964 8.68973 27.252 7.39373 27.252C5.25773 27.252 3.63773 26.652 2.53373 25.452C1.42973 24.252 0.877734 22.476 0.877734 20.124V8.892H3.79373V20.052C3.79373 21.684 4.12973 22.884 4.80173 23.652C5.47373 24.42 6.49373 24.804 7.86174 24.804C9.46974 24.804 10.7657 24.288 11.7497 23.256C12.7337 22.2 13.2257 20.82 13.2257 19.116V8.892H16.1417ZM30.7991 8.46C35.1431 8.46 37.3151 10.848 37.3151 15.624V27H34.3991V15.768C34.3991 14.088 34.0631 12.864 33.3911 12.096C32.7191 11.304 31.6631 10.908 30.2231 10.908C28.5431 10.908 27.1991 11.424 26.1911 12.456C25.1831 13.488 24.6791 14.88 24.6791 16.632V27H21.7631V13.968C21.7631 12.096 21.6671 10.404 21.4751 8.892H24.2471L24.5351 12.132C25.0871 10.956 25.9151 10.056 27.0191 9.432C28.1231 8.784 29.3831 8.46 30.7991 8.46Z" fill="#55439B"/>
<path d="M51.8577 8.46C53.4417 8.46 54.8457 8.856 56.0697 9.648C57.2937 10.44 58.2417 11.556 58.9137 12.996C59.5857 14.412 59.9217 16.056 59.9217 17.928C59.9217 19.8 59.5857 21.444 58.9137 22.86C58.2417 24.252 57.2937 25.332 56.0697 26.1C54.8697 26.868 53.4657 27.252 51.8577 27.252C50.4417 27.252 49.2057 26.94 48.1497 26.316C47.0937 25.692 46.2897 24.804 45.7377 23.652V34.776H42.8217V13.968C42.8217 12.096 42.7257 10.404 42.5337 8.892H45.3057L45.5937 12.384C46.0977 11.136 46.8897 10.176 47.9697 9.504C49.0737 8.808 50.3697 8.46 51.8577 8.46ZM51.3177 24.84C53.0937 24.84 54.4617 24.24 55.4217 23.04C56.4057 21.84 56.8977 20.136 56.8977 17.928C56.8977 15.72 56.4057 14.004 55.4217 12.78C54.4377 11.532 53.0697 10.908 51.3177 10.908C49.5177 10.908 48.1377 11.508 47.1777 12.708C46.2177 13.908 45.7377 15.624 45.7377 17.856C45.7377 20.088 46.2177 21.816 47.1777 23.04C48.1377 24.24 49.5177 24.84 51.3177 24.84ZM64.4076 0.503998H67.3236V27H64.4076V0.503998ZM88.9337 8.892V27H86.0537V23.724C85.5257 24.852 84.7217 25.728 83.6417 26.352C82.5857 26.952 81.3497 27.252 79.9337 27.252C78.3257 27.252 76.9097 26.868 75.6857 26.1C74.4857 25.332 73.5497 24.252 72.8777 22.86C72.2297 21.444 71.9057 19.8 71.9057 17.928C71.9057 16.056 72.2417 14.412 72.9137 12.996C73.5857 11.556 74.5217 10.44 75.7217 9.648C76.9457 8.856 78.3497 8.46 79.9337 8.46C81.3497 8.46 82.5857 8.772 83.6417 9.396C84.6977 10.02 85.5017 10.896 86.0537 12.024V8.892H88.9337ZM80.5097 24.84C82.2857 24.84 83.6537 24.24 84.6137 23.04C85.5737 21.816 86.0537 20.088 86.0537 17.856C86.0537 15.624 85.5737 13.908 84.6137 12.708C83.6537 11.508 82.2857 10.908 80.5097 10.908C78.7337 10.908 77.3417 11.532 76.3337 12.78C75.3497 14.004 74.8577 15.72 74.8577 17.928C74.8577 20.136 75.3497 21.84 76.3337 23.04C77.3177 24.24 78.7097 24.84 80.5097 24.84ZM103.608 8.46C107.952 8.46 110.124 10.848 110.124 15.624V27H107.208V15.768C107.208 14.088 106.872 12.864 106.2 12.096C105.528 11.304 104.472 10.908 103.032 10.908C101.352 10.908 100.008 11.424 98.9997 12.456C97.9917 13.488 97.4877 14.88 97.4877 16.632V27H94.5717V13.968C94.5717 12.096 94.4757 10.404 94.2837 8.892H97.0557L97.3437 12.132C97.8957 10.956 98.7237 10.056 99.8277 9.432C100.932 8.784 102.192 8.46 103.608 8.46Z" fill="#B6DF10"/>
</svg>
