<svg width="187" height="19" viewBox="0 0 187 19" fill="none" xmlns="http://www.w3.org/2000/svg">
<path d="M3.77035 6.332V10.886C3.77035 11.51 3.90235 11.954 4.16635 12.218C4.44235 12.47 4.82035 12.596 5.30035 12.596C5.61235 12.596 5.93035 12.548 6.25435 12.452V13.928C5.85835 14.06 5.40835 14.126 4.90435 14.126C3.96835 14.126 3.24235 13.862 2.72635 13.334C2.21035 12.806 1.95235 12.038 1.95235 11.03V6.332H0.188353V4.928H1.95235V2.66L3.77035 2.03V4.928H6.27235V6.332H3.77035ZM13.6394 4.712C13.9154 4.712 14.2034 4.754 14.5034 4.838L14.4674 6.494C14.1434 6.374 13.7894 6.314 13.4054 6.314C12.5774 6.314 11.9534 6.566 11.5334 7.07C11.1254 7.562 10.9214 8.186 10.9214 8.942V14H9.12142V7.484C9.12142 6.536 9.07342 5.684 8.97742 4.928H10.6694L10.8314 6.566C11.0714 5.966 11.4434 5.51 11.9474 5.198C12.4514 4.874 13.0154 4.712 13.6394 4.712ZM25.1812 4.928V14H23.3812V12.452C23.1172 12.992 22.7212 13.406 22.1932 13.694C21.6772 13.982 21.0712 14.126 20.3752 14.126C19.5712 14.126 18.8632 13.934 18.2512 13.55C17.6512 13.166 17.1832 12.626 16.8472 11.93C16.5112 11.222 16.3432 10.4 16.3432 9.464C16.3432 8.528 16.5112 7.7 16.8472 6.98C17.1952 6.26 17.6752 5.702 18.2872 5.306C18.8992 4.91 19.5952 4.712 20.3752 4.712C21.0712 4.712 21.6772 4.862 22.1932 5.162C22.7092 5.45 23.1052 5.864 23.3812 6.404V4.928H25.1812ZM20.8072 12.686C21.6232 12.686 22.2532 12.404 22.6972 11.84C23.1532 11.264 23.3812 10.46 23.3812 9.428C23.3812 8.384 23.1532 7.58 22.6972 7.016C22.2532 6.452 21.6172 6.17 20.7892 6.17C19.9732 6.17 19.3312 6.464 18.8632 7.052C18.4072 7.628 18.1792 8.432 18.1792 9.464C18.1792 10.484 18.4072 11.276 18.8632 11.84C19.3312 12.404 19.9792 12.686 20.8072 12.686ZM32.964 14.126C32.052 14.126 31.254 13.934 30.57 13.55C29.898 13.166 29.382 12.626 29.022 11.93C28.662 11.222 28.482 10.4 28.482 9.464C28.482 8.528 28.668 7.7 29.04 6.98C29.424 6.26 29.958 5.702 30.642 5.306C31.326 4.91 32.124 4.712 33.036 4.712C33.672 4.712 34.284 4.82 34.872 5.036C35.46 5.24 35.934 5.522 36.294 5.882L35.736 7.196C34.884 6.524 34.026 6.188 33.162 6.188C32.286 6.188 31.602 6.476 31.11 7.052C30.618 7.616 30.372 8.414 30.372 9.446C30.372 10.478 30.618 11.276 31.11 11.84C31.602 12.392 32.286 12.668 33.162 12.668C34.05 12.668 34.908 12.332 35.736 11.66L36.294 12.974C35.91 13.334 35.418 13.616 34.818 13.82C34.23 14.024 33.612 14.126 32.964 14.126ZM45.3124 14L40.9744 9.716V14H39.1744V0.751999H40.9744V9.032L45.0064 4.946H47.2564L42.9184 9.302L47.6344 14H45.3124ZM49.9069 4.928H51.7069V14H49.9069V4.928ZM51.8509 0.967999V2.876H49.7449V0.967999H51.8509ZM60.3657 4.712C62.5377 4.712 63.6237 5.924 63.6237 8.348V14H61.8057V8.456C61.8057 7.664 61.6497 7.088 61.3377 6.728C61.0377 6.368 60.5517 6.188 59.8797 6.188C59.1117 6.188 58.4937 6.428 58.0257 6.908C57.5697 7.388 57.3417 8.03 57.3417 8.834V14H55.5417V7.484C55.5417 6.536 55.4937 5.684 55.3977 4.928H57.0897L57.2517 6.494C57.5397 5.918 57.9537 5.48 58.4937 5.18C59.0457 4.868 59.6697 4.712 60.3657 4.712ZM75.7517 4.928V13.838C75.7517 15.218 75.3857 16.256 74.6537 16.952C73.9337 17.66 72.8597 18.014 71.4317 18.014C70.0517 18.014 68.8457 17.714 67.8137 17.114L68.1197 15.692C68.6837 15.992 69.2237 16.214 69.7397 16.358C70.2677 16.502 70.8257 16.574 71.4137 16.574C73.1057 16.574 73.9517 15.71 73.9517 13.982V12.02C73.6757 12.548 73.2737 12.968 72.7457 13.28C72.2177 13.58 71.6057 13.73 70.9097 13.73C70.1177 13.73 69.4097 13.544 68.7857 13.172C68.1737 12.8 67.6937 12.272 67.3457 11.588C67.0097 10.904 66.8417 10.118 66.8417 9.23C66.8417 8.342 67.0097 7.556 67.3457 6.872C67.6937 6.188 68.1737 5.66 68.7857 5.288C69.4097 4.904 70.1177 4.712 70.9097 4.712C71.6057 4.712 72.2177 4.862 72.7457 5.162C73.2737 5.45 73.6757 5.864 73.9517 6.404V4.928H75.7517ZM71.3237 12.272C72.1397 12.272 72.7817 12.002 73.2497 11.462C73.7177 10.922 73.9517 10.178 73.9517 9.23C73.9517 8.282 73.7177 7.538 73.2497 6.998C72.7937 6.446 72.1517 6.17 71.3237 6.17C70.5077 6.17 69.8597 6.446 69.3797 6.998C68.9117 7.538 68.6777 8.282 68.6777 9.23C68.6777 10.166 68.9117 10.91 69.3797 11.462C69.8597 12.002 70.5077 12.272 71.3237 12.272ZM90.3655 4.712C91.1575 4.712 91.8595 4.904 92.4715 5.288C93.0835 5.672 93.5575 6.218 93.8935 6.926C94.2295 7.634 94.3975 8.456 94.3975 9.392C94.3975 10.328 94.2235 11.156 93.8755 11.876C93.5395 12.584 93.0655 13.136 92.4535 13.532C91.8415 13.928 91.1455 14.126 90.3655 14.126C89.6695 14.126 89.0575 13.982 88.5295 13.694C88.0135 13.394 87.6235 12.968 87.3595 12.416V14H85.5595V0.751999H87.3595V6.422C87.6235 5.882 88.0135 5.462 88.5295 5.162C89.0575 4.862 89.6695 4.712 90.3655 4.712ZM89.9515 12.686C90.7675 12.686 91.4035 12.398 91.8595 11.822C92.3155 11.234 92.5435 10.424 92.5435 9.392C92.5435 8.372 92.3155 7.58 91.8595 7.016C91.4035 6.452 90.7675 6.17 89.9515 6.17C89.1235 6.17 88.4815 6.452 88.0255 7.016C87.5815 7.58 87.3595 8.384 87.3595 9.428C87.3595 10.472 87.5815 11.276 88.0255 11.84C88.4815 12.404 89.1235 12.686 89.9515 12.686ZM105.582 4.928V14H103.818V12.488C103.53 13.016 103.134 13.424 102.63 13.712C102.126 13.988 101.556 14.126 100.92 14.126C98.7363 14.126 97.6443 12.914 97.6443 10.49V4.928H99.4443V10.472C99.4443 11.216 99.5943 11.768 99.8943 12.128C100.206 12.476 100.674 12.65 101.298 12.65C102.042 12.65 102.636 12.41 103.08 11.93C103.536 11.45 103.764 10.814 103.764 10.022V4.928H105.582ZM112.583 14.126C110.999 14.126 109.751 13.742 108.839 12.974L109.379 11.66C110.327 12.38 111.413 12.74 112.637 12.74C113.261 12.74 113.735 12.638 114.059 12.434C114.383 12.218 114.545 11.918 114.545 11.534C114.545 11.21 114.431 10.958 114.203 10.778C113.987 10.586 113.615 10.424 113.087 10.292L111.575 9.932C110.783 9.764 110.177 9.47 109.757 9.05C109.349 8.618 109.145 8.084 109.145 7.448C109.145 6.632 109.469 5.972 110.117 5.468C110.777 4.964 111.647 4.712 112.727 4.712C113.375 4.712 113.987 4.814 114.563 5.018C115.151 5.222 115.649 5.51 116.057 5.882L115.499 7.16C114.623 6.464 113.699 6.116 112.727 6.116C112.139 6.116 111.683 6.23 111.359 6.458C111.035 6.674 110.873 6.98 110.873 7.376C110.873 7.688 110.975 7.94 111.179 8.132C111.383 8.324 111.707 8.474 112.151 8.582L113.699 8.96C114.563 9.152 115.199 9.458 115.607 9.878C116.027 10.286 116.237 10.82 116.237 11.48C116.237 12.296 115.907 12.944 115.247 13.424C114.599 13.892 113.711 14.126 112.583 14.126ZM119.55 4.928H121.35V14H119.55V4.928ZM121.494 0.967999V2.876H119.388V0.967999H121.494ZM130.009 4.712C132.181 4.712 133.267 5.924 133.267 8.348V14H131.449V8.456C131.449 7.664 131.293 7.088 130.981 6.728C130.681 6.368 130.195 6.188 129.523 6.188C128.755 6.188 128.137 6.428 127.669 6.908C127.213 7.388 126.985 8.03 126.985 8.834V14H125.185V7.484C125.185 6.536 125.137 5.684 125.041 4.928H126.733L126.895 6.494C127.183 5.918 127.597 5.48 128.137 5.18C128.689 4.868 129.313 4.712 130.009 4.712ZM144.765 9.5H138.285C138.345 11.624 139.311 12.686 141.183 12.686C142.227 12.686 143.181 12.344 144.045 11.66L144.603 12.956C144.195 13.316 143.673 13.604 143.037 13.82C142.413 14.024 141.783 14.126 141.147 14.126C139.695 14.126 138.555 13.712 137.727 12.884C136.899 12.044 136.485 10.898 136.485 9.446C136.485 8.522 136.665 7.7 137.025 6.98C137.397 6.26 137.913 5.702 138.573 5.306C139.233 4.91 139.983 4.712 140.823 4.712C142.047 4.712 143.007 5.108 143.703 5.9C144.411 6.692 144.765 7.79 144.765 9.194V9.5ZM140.859 6.062C140.175 6.062 139.617 6.266 139.185 6.674C138.753 7.082 138.477 7.664 138.357 8.42H143.163C143.091 7.652 142.857 7.07 142.461 6.674C142.065 6.266 141.531 6.062 140.859 6.062ZM151.189 14.126C149.605 14.126 148.357 13.742 147.445 12.974L147.985 11.66C148.933 12.38 150.019 12.74 151.243 12.74C151.867 12.74 152.341 12.638 152.665 12.434C152.989 12.218 153.151 11.918 153.151 11.534C153.151 11.21 153.037 10.958 152.809 10.778C152.593 10.586 152.221 10.424 151.693 10.292L150.181 9.932C149.389 9.764 148.783 9.47 148.363 9.05C147.955 8.618 147.751 8.084 147.751 7.448C147.751 6.632 148.075 5.972 148.723 5.468C149.383 4.964 150.253 4.712 151.333 4.712C151.981 4.712 152.593 4.814 153.169 5.018C153.757 5.222 154.255 5.51 154.663 5.882L154.105 7.16C153.229 6.464 152.305 6.116 151.333 6.116C150.745 6.116 150.289 6.23 149.965 6.458C149.641 6.674 149.479 6.98 149.479 7.376C149.479 7.688 149.581 7.94 149.785 8.132C149.989 8.324 150.313 8.474 150.757 8.582L152.305 8.96C153.169 9.152 153.805 9.458 154.213 9.878C154.633 10.286 154.843 10.82 154.843 11.48C154.843 12.296 154.513 12.944 153.853 13.424C153.205 13.892 152.317 14.126 151.189 14.126ZM161.324 14.126C159.74 14.126 158.492 13.742 157.58 12.974L158.12 11.66C159.068 12.38 160.154 12.74 161.378 12.74C162.002 12.74 162.476 12.638 162.8 12.434C163.124 12.218 163.286 11.918 163.286 11.534C163.286 11.21 163.172 10.958 162.944 10.778C162.728 10.586 162.356 10.424 161.828 10.292L160.316 9.932C159.524 9.764 158.918 9.47 158.498 9.05C158.09 8.618 157.886 8.084 157.886 7.448C157.886 6.632 158.21 5.972 158.858 5.468C159.518 4.964 160.388 4.712 161.468 4.712C162.116 4.712 162.728 4.814 163.304 5.018C163.892 5.222 164.39 5.51 164.798 5.882L164.24 7.16C163.364 6.464 162.44 6.116 161.468 6.116C160.88 6.116 160.424 6.23 160.1 6.458C159.776 6.674 159.614 6.98 159.614 7.376C159.614 7.688 159.716 7.94 159.92 8.132C160.124 8.324 160.448 8.474 160.892 8.582L162.44 8.96C163.304 9.152 163.94 9.458 164.348 9.878C164.768 10.286 164.978 10.82 164.978 11.48C164.978 12.296 164.648 12.944 163.988 13.424C163.34 13.892 162.452 14.126 161.324 14.126ZM176.031 9.5H169.551C169.611 11.624 170.577 12.686 172.449 12.686C173.493 12.686 174.447 12.344 175.311 11.66L175.869 12.956C175.461 13.316 174.939 13.604 174.303 13.82C173.679 14.024 173.049 14.126 172.413 14.126C170.961 14.126 169.821 13.712 168.993 12.884C168.165 12.044 167.751 10.898 167.751 9.446C167.751 8.522 167.931 7.7 168.291 6.98C168.663 6.26 169.179 5.702 169.839 5.306C170.499 4.91 171.249 4.712 172.089 4.712C173.313 4.712 174.273 5.108 174.969 5.9C175.677 6.692 176.031 7.79 176.031 9.194V9.5ZM172.125 6.062C171.441 6.062 170.883 6.266 170.451 6.674C170.019 7.082 169.743 7.664 169.623 8.42H174.429C174.357 7.652 174.123 7.07 173.727 6.674C173.331 6.266 172.797 6.062 172.125 6.062ZM182.455 14.126C180.871 14.126 179.623 13.742 178.711 12.974L179.251 11.66C180.199 12.38 181.285 12.74 182.509 12.74C183.133 12.74 183.607 12.638 183.931 12.434C184.255 12.218 184.417 11.918 184.417 11.534C184.417 11.21 184.303 10.958 184.075 10.778C183.859 10.586 183.487 10.424 182.959 10.292L181.447 9.932C180.655 9.764 180.049 9.47 179.629 9.05C179.221 8.618 179.017 8.084 179.017 7.448C179.017 6.632 179.341 5.972 179.989 5.468C180.649 4.964 181.519 4.712 182.599 4.712C183.247 4.712 183.859 4.814 184.435 5.018C185.023 5.222 185.521 5.51 185.929 5.882L185.371 7.16C184.495 6.464 183.571 6.116 182.599 6.116C182.011 6.116 181.555 6.23 181.231 6.458C180.907 6.674 180.745 6.98 180.745 7.376C180.745 7.688 180.847 7.94 181.051 8.132C181.255 8.324 181.579 8.474 182.023 8.582L183.571 8.96C184.435 9.152 185.071 9.458 185.479 9.878C185.899 10.286 186.109 10.82 186.109 11.48C186.109 12.296 185.779 12.944 185.119 13.424C184.471 13.892 183.583 14.126 182.455 14.126Z" fill="#C1C1C1"/>
</svg>
